<svg width="92" height="88" viewBox="0 0 92 88" fill="none" xmlns="http://www.w3.org/2000/svg">
<path d="M21.0834 3.66667C17.9077 3.66667 15.3334 6.12911 15.3334 9.16667V78.8333C15.3334 81.8709 17.9077 84.3333 21.0834 84.3333H70.9167C74.0923 84.3333 76.6667 81.8709 76.6667 78.8333V25.6667L53.6667 3.66667H21.0834Z" fill="#485B7C"/>
<path d="M21.0834 84.3333C17.9077 84.3333 15.3334 81.8709 15.3334 78.8333V77.9167C15.3334 80.9542 17.9077 83.4167 21.0834 83.4167H70.9167C74.0923 83.4167 76.6667 80.9542 76.6667 77.9167V78.8333C76.6667 81.8709 74.0923 84.3333 70.9167 84.3333H21.0834Z" fill="#485B7C"/>
<path d="M21.0834 3.66667C17.9077 3.66667 15.3334 6.12911 15.3334 9.16667V10.0833C15.3334 7.04577 17.9077 4.58334 21.0834 4.58334H54.625L53.6667 3.66667H21.0834Z" fill="#485B7C"/>
<path d="M53.6666 3.66667L76.6666 25.6667H59.4166C56.241 25.6667 53.6666 23.2042 53.6666 20.1667V3.66667Z" fill="#647BA4"/>
<path d="M61.3333 44H30.6666V47.6667H61.3333V44Z" fill="white"/>
<path d="M61.3333 51.3333H30.6666V55H61.3333V51.3333Z" fill="white"/>
<path d="M30.6666 58.6667H61.3333V62.3333H30.6666V58.6667Z" fill="white"/>
<path d="M53.6666 66H30.6666V69.6667H53.6666V66Z" fill="white"/>
</svg>
