<svg width="102" height="102" viewBox="0 0 102 102" fill="none" xmlns="http://www.w3.org/2000/svg">
<path fill-rule="evenodd" clip-rule="evenodd" d="M51.0001 9.54845C27.5188 9.54845 8.50006 28.5672 8.50006 52.0485C8.50006 70.8547 20.6657 86.7391 37.5594 92.3703C39.6844 92.7422 40.4813 91.4672 40.4813 90.3516C40.4813 89.3422 40.4282 85.9953 40.4282 82.436C29.7501 84.4016 26.9876 79.8328 26.1376 77.4422C25.6594 76.2203 23.5876 72.4485 21.7813 71.4391C20.2938 70.6422 18.1688 68.6766 21.7282 68.6235C25.0751 68.5703 27.4657 71.7047 28.2626 72.9797C32.0876 79.4078 38.1969 77.6016 40.6407 76.486C41.0126 73.7235 42.1282 71.8641 43.3501 70.8016C33.8938 69.7391 24.0126 66.0735 24.0126 49.8172C24.0126 45.1953 25.6594 41.3703 28.3688 38.3953C27.9438 37.3328 26.4563 32.9766 28.7938 27.1328C28.7938 27.1328 32.3532 26.0172 40.4813 31.4891C43.8813 30.5328 47.4938 30.0547 51.1063 30.0547C54.7188 30.0547 58.3313 30.5328 61.7313 31.4891C69.8594 25.9641 73.4188 27.1328 73.4188 27.1328C75.7563 32.9766 74.2688 37.3328 73.8438 38.3953C76.5532 41.3703 78.2001 45.1422 78.2001 49.8172C78.2001 66.1266 68.2657 69.7391 58.8094 70.8016C60.3501 72.1297 61.6782 74.6797 61.6782 78.6641C61.6782 84.3485 61.6251 88.9172 61.6251 90.3516C61.6251 91.4672 62.4219 92.7953 64.5469 92.3703C72.984 89.5221 80.3154 84.0997 85.5092 76.8664C90.703 69.6332 93.4978 60.9533 93.5001 52.0485C93.5001 28.5672 74.4813 9.54845 51.0001 9.54845Z" fill="#485B7C"/>
</svg>
