<svg width="220" height="229" viewBox="0 0 220 229" fill="none" xmlns="http://www.w3.org/2000/svg">
<g filter="url(#filter0_dddddd_71_37)">
<path d="M41 28.6036C41 12.8063 53.8063 0 69.6036 0H150.396C166.194 0 179 12.8063 179 28.6036V109.396C179 125.194 166.194 138 150.396 138H69.6036C53.8063 138 41 125.194 41 109.396V28.6036Z" fill="#EBE9E9"/>
</g>
<g filter="url(#filter1_i_71_37)">
<path fill-rule="evenodd" clip-rule="evenodd" d="M76.7402 41.3588C76.7402 39.8688 77.3321 38.4398 78.3856 37.3863C79.4392 36.3327 80.8682 35.7408 82.3582 35.7408H138.361C139.099 35.7396 139.831 35.884 140.513 36.1659C141.196 36.4477 141.816 36.8614 142.338 37.3832C142.861 37.905 143.275 38.5248 143.558 39.207C143.84 39.8892 143.985 40.6204 143.985 41.3588V97.3614C143.986 98.1 143.841 98.8314 143.559 99.5139C143.277 100.196 142.863 100.817 142.341 101.339C141.818 101.861 141.198 102.276 140.516 102.558C139.834 102.841 139.102 102.986 138.364 102.986H82.3582C81.6201 102.986 80.8894 102.84 80.2075 102.558C79.5257 102.275 78.9063 101.861 78.3846 101.339C77.8628 100.817 77.4491 100.197 77.1669 99.5153C76.8848 98.8334 76.7398 98.1025 76.7402 97.3645V41.3588ZM103.357 61.3794H112.462V65.952C113.777 63.3234 117.139 60.9576 122.192 60.9576C131.878 60.9576 134.173 66.1935 134.173 75.8003V93.5957H124.371V77.9888C124.371 72.5176 123.057 69.4304 119.719 69.4304C115.088 69.4304 113.162 72.759 113.162 77.9888V93.5957H103.357V61.3794ZM86.5457 93.177H96.3512V60.9576H86.5457V93.1739V93.177ZM97.7542 50.449C97.7726 51.2886 97.6233 52.1234 97.3147 52.9044C97.0062 53.6855 96.5448 54.397 95.9576 54.9973C95.3704 55.5976 94.6691 56.0746 93.8951 56.4002C93.121 56.7259 92.2897 56.8936 91.45 56.8936C90.6102 56.8936 89.7789 56.7259 89.0048 56.4002C88.2308 56.0746 87.5296 55.5976 86.9423 54.9973C86.3551 54.397 85.8937 53.6855 85.5852 52.9044C85.2767 52.1234 85.1273 51.2886 85.1458 50.449C85.1821 48.8011 85.8622 47.2329 87.0405 46.0802C88.2188 44.9276 89.8016 44.2822 91.45 44.2822C93.0983 44.2822 94.6811 44.9276 95.8594 46.0802C97.0377 47.2329 97.7179 48.8011 97.7542 50.449Z" fill="#485B7C"/>
</g>
<defs>
<filter id="filter0_dddddd_71_37" x="0.854546" y="0" width="218.291" height="228.327" filterUnits="userSpaceOnUse" color-interpolation-filters="sRGB">
<feFlood flood-opacity="0" result="BackgroundImageFix"/>
<feColorMatrix in="SourceAlpha" type="matrix" values="0 0 0 0 0 0 0 0 0 0 0 0 0 0 0 0 0 0 127 0" result="hardAlpha"/>
<feOffset dy="1.38866"/>
<feGaussianBlur stdDeviation="0.555464"/>
<feColorMatrix type="matrix" values="0 0 0 0 0 0 0 0 0 0 0 0 0 0 0 0 0 0 0.0196802 0"/>
<feBlend mode="normal" in2="BackgroundImageFix" result="effect1_dropShadow_71_37"/>
<feColorMatrix in="SourceAlpha" type="matrix" values="0 0 0 0 0 0 0 0 0 0 0 0 0 0 0 0 0 0 127 0" result="hardAlpha"/>
<feOffset dy="3.33714"/>
<feGaussianBlur stdDeviation="1.33486"/>
<feColorMatrix type="matrix" values="0 0 0 0 0 0 0 0 0 0 0 0 0 0 0 0 0 0 0.0282725 0"/>
<feBlend mode="normal" in2="effect1_dropShadow_71_37" result="effect2_dropShadow_71_37"/>
<feColorMatrix in="SourceAlpha" type="matrix" values="0 0 0 0 0 0 0 0 0 0 0 0 0 0 0 0 0 0 127 0" result="hardAlpha"/>
<feOffset dy="6.28354"/>
<feGaussianBlur stdDeviation="2.51342"/>
<feColorMatrix type="matrix" values="0 0 0 0 0 0 0 0 0 0 0 0 0 0 0 0 0 0 0.035 0"/>
<feBlend mode="normal" in2="effect2_dropShadow_71_37" result="effect3_dropShadow_71_37"/>
<feColorMatrix in="SourceAlpha" type="matrix" values="0 0 0 0 0 0 0 0 0 0 0 0 0 0 0 0 0 0 127 0" result="hardAlpha"/>
<feOffset dy="11.2088"/>
<feGaussianBlur stdDeviation="4.48351"/>
<feColorMatrix type="matrix" values="0 0 0 0 0 0 0 0 0 0 0 0 0 0 0 0 0 0 0.0417275 0"/>
<feBlend mode="normal" in2="effect3_dropShadow_71_37" result="effect4_dropShadow_71_37"/>
<feColorMatrix in="SourceAlpha" type="matrix" values="0 0 0 0 0 0 0 0 0 0 0 0 0 0 0 0 0 0 127 0" result="hardAlpha"/>
<feOffset dy="20.9648"/>
<feGaussianBlur stdDeviation="8.38591"/>
<feColorMatrix type="matrix" values="0 0 0 0 0 0 0 0 0 0 0 0 0 0 0 0 0 0 0.0503198 0"/>
<feBlend mode="normal" in2="effect4_dropShadow_71_37" result="effect5_dropShadow_71_37"/>
<feColorMatrix in="SourceAlpha" type="matrix" values="0 0 0 0 0 0 0 0 0 0 0 0 0 0 0 0 0 0 127 0" result="hardAlpha"/>
<feOffset dy="50.1818"/>
<feGaussianBlur stdDeviation="20.0727"/>
<feColorMatrix type="matrix" values="0 0 0 0 0 0 0 0 0 0 0 0 0 0 0 0 0 0 0.07 0"/>
<feBlend mode="normal" in2="effect5_dropShadow_71_37" result="effect6_dropShadow_71_37"/>
<feBlend mode="normal" in="SourceGraphic" in2="effect6_dropShadow_71_37" result="shape"/>
</filter>
<filter id="filter1_i_71_37" x="73.6836" y="32.6842" width="73.3579" height="75.3652" filterUnits="userSpaceOnUse" color-interpolation-filters="sRGB">
<feFlood flood-opacity="0" result="BackgroundImageFix"/>
<feBlend mode="normal" in="SourceGraphic" in2="BackgroundImageFix" result="shape"/>
<feColorMatrix in="SourceAlpha" type="matrix" values="0 0 0 0 0 0 0 0 0 0 0 0 0 0 0 0 0 0 127 0" result="hardAlpha"/>
<feOffset dy="2.00727"/>
<feGaussianBlur stdDeviation="3.76364"/>
<feComposite in2="hardAlpha" operator="arithmetic" k2="-1" k3="1"/>
<feColorMatrix type="matrix" values="0 0 0 0 0 0 0 0 0 0 0 0 0 0 0 0 0 0 0.2 0"/>
<feBlend mode="normal" in2="shape" result="effect1_innerShadow_71_37"/>
</filter>
</defs>
</svg>
