<svg width="102" height="55" viewBox="0 0 102 55" fill="none" xmlns="http://www.w3.org/2000/svg">
<mask id="path-1-outside-1_94_105" maskUnits="userSpaceOnUse" x="-0.444458" y="-0.22168" width="103" height="55" fill="black">
<rect fill="white" x="-0.444458" y="-0.22168" width="103" height="55"/>
<path d="M95.4444 6.77832L51 48.445L6.55554 6.77832"/>
</mask>
<path d="M99.6529 11.2674C102.132 8.94311 102.258 5.04906 99.9335 2.5698C97.6092 0.090549 93.7152 -0.0350652 91.2359 2.28924L99.6529 11.2674ZM51 48.445L46.7915 52.9341C49.1584 55.1531 52.8416 55.1531 55.2085 52.9341L51 48.445ZM10.7641 2.28924C8.28481 -0.0350652 4.39076 0.090549 2.06646 2.5698C-0.257843 5.04906 -0.132229 8.94311 2.34702 11.2674L10.7641 2.28924ZM91.2359 2.28924L46.7915 43.9559L55.2085 52.9341L99.6529 11.2674L91.2359 2.28924ZM55.2085 43.9559L10.7641 2.28924L2.34702 11.2674L46.7915 52.9341L55.2085 43.9559Z" fill="white" mask="url(#path-1-outside-1_94_105)"/>
</svg>
